<svg width="72" height="72" viewBox="0 0 72 72" fill="none" xmlns="http://www.w3.org/2000/svg">
<path fill-rule="evenodd" clip-rule="evenodd" d="M15.3751 52.4999H34.625H36H53.864C53.8677 52.4999 53.8713 52.4999 53.8749 52.4999C62.2282 52.4999 68.9998 45.7282 68.9998 37.375C68.9998 29.0217 62.2282 22.2501 53.8749 22.2501C53.5433 22.2501 53.2141 22.2607 52.8878 22.2818C49.4351 15.7225 42.5524 11.2501 34.625 11.2501C24.6336 11.2501 16.3016 18.3546 14.4051 27.7875C8.024 28.2822 3.00017 33.6169 3.00017 40.125C3.00017 46.9595 8.54062 52.4999 15.3751 52.4999Z" fill="white"/>
<path fill-rule="evenodd" clip-rule="evenodd" d="M15.3751 52.4999H34.625H36H53.864C53.8677 52.4999 53.8713 52.4999 53.8749 52.4999C62.2282 52.4999 68.9998 45.7282 68.9998 37.375C68.9998 29.0217 62.2282 22.2501 53.8749 22.2501C53.5433 22.2501 53.2141 22.2607 52.8878 22.2818C49.4351 15.7225 42.5524 11.2501 34.625 11.2501C24.6336 11.2501 16.3016 18.3546 14.4051 27.7875C8.024 28.2822 3.00017 33.6169 3.00017 40.125C3.00017 46.9595 8.54062 52.4999 15.3751 52.4999Z" fill="url(#paint0_linear_174_193516)"/>
<path d="M3.00017 40.1249C3.00017 33.2904 8.54062 27.75 15.3751 27.75H19.5001C28.6127 27.75 36 35.1373 36 44.2499V52.4999H15.3751C8.54062 52.4999 3.00017 46.9594 3.00017 40.1249V40.1249Z" fill="url(#paint1_radial_174_193516)"/>
<path d="M14.0001 31.875C14.0001 20.4842 23.2342 11.2501 34.625 11.2501V11.2501C46.0158 11.2501 55.2499 20.4842 55.2499 31.875V31.875C55.2499 43.2658 46.0158 52.4999 34.625 52.4999V52.4999C23.2342 52.4999 14.0001 43.2658 14.0001 31.875V31.875Z" fill="url(#paint2_radial_174_193516)"/>
<circle cx="53.8749" cy="37.3749" r="15.1249" fill="url(#paint3_radial_174_193516)"/>
<path fill-rule="evenodd" clip-rule="evenodd" d="M44.2501 59.3177V40.6756C44.2501 38.9566 46.3317 38.0996 47.542 39.3202L60.61 52.4993C62.3933 54.2463 63.4999 56.6815 63.4999 59.3751C63.4999 64.6909 59.1906 69.0001 53.8749 69.0001C48.5592 69.0001 44.25 64.6909 44.25 59.3751C44.25 59.356 44.25 59.3368 44.2501 59.3177Z" fill="#C4C4C4"/>
<path fill-rule="evenodd" clip-rule="evenodd" d="M44.2501 59.3177V40.6756C44.2501 38.9566 46.3317 38.0996 47.542 39.3202L60.61 52.4993C62.3933 54.2463 63.4999 56.6815 63.4999 59.3751C63.4999 64.6909 59.1906 69.0001 53.8749 69.0001C48.5592 69.0001 44.25 64.6909 44.25 59.3751C44.25 59.356 44.25 59.3368 44.2501 59.3177Z" fill="url(#paint4_linear_174_193516)"/>
<path fill-rule="evenodd" clip-rule="evenodd" d="M19.5003 57.4876V42.7199C19.5003 41.001 21.5819 40.1439 22.7922 41.3645L32.8826 51.5407C34.7822 53.0521 36 55.3839 36 58.0001C36 62.5564 32.3064 66.2501 27.75 66.2501C23.1937 66.2501 19.5001 62.5564 19.5001 58.0001C19.5001 57.8258 19.5055 57.6527 19.5161 57.4811L19.5003 57.4876Z" fill="#C4C4C4"/>
<path fill-rule="evenodd" clip-rule="evenodd" d="M19.5003 57.4876V42.7199C19.5003 41.001 21.5819 40.1439 22.7922 41.3645L32.8826 51.5407C34.7822 53.0521 36 55.3839 36 58.0001C36 62.5564 32.3064 66.2501 27.75 66.2501C23.1937 66.2501 19.5001 62.5564 19.5001 58.0001C19.5001 57.8258 19.5055 57.6527 19.5161 57.4811L19.5003 57.4876Z" fill="url(#paint5_linear_174_193516)"/>
<path fill-rule="evenodd" clip-rule="evenodd" d="M27.7502 37.3263V25.3996C27.7502 23.6806 29.8318 22.8236 31.0421 24.0442L39.0094 32.0792C40.5309 33.3402 41.5 35.2444 41.5 37.3749C41.5 41.1718 38.4219 44.2499 34.625 44.2499C30.9555 44.2499 27.9574 41.3749 27.7604 37.7546L27.7502 37.7587V37.4234C27.7501 37.4073 27.75 37.3911 27.75 37.3749C27.75 37.3587 27.7501 37.3425 27.7502 37.3263Z" fill="#C4C4C4"/>
<path fill-rule="evenodd" clip-rule="evenodd" d="M27.7502 37.3263V25.3996C27.7502 23.6806 29.8318 22.8236 31.0421 24.0442L39.0094 32.0792C40.5309 33.3402 41.5 35.2444 41.5 37.3749C41.5 41.1718 38.4219 44.2499 34.625 44.2499C30.9555 44.2499 27.9574 41.3749 27.7604 37.7546L27.7502 37.7587V37.4234C27.7501 37.4073 27.75 37.3911 27.75 37.3749C27.75 37.3587 27.7501 37.3425 27.7502 37.3263Z" fill="url(#paint6_linear_174_193516)"/>
<defs>
<linearGradient id="paint0_linear_174_193516" x1="23.6251" y1="20.8751" x2="36" y2="52.4999" gradientUnits="userSpaceOnUse">
<stop stop-color="#BBD4FF"/>
<stop offset="1" stop-color="#B5CBDF" stop-opacity="0"/>
</linearGradient>
<radialGradient id="paint1_radial_174_193516" cx="0" cy="0" r="1" gradientUnits="userSpaceOnUse" gradientTransform="translate(20.8751 52.4999) rotate(-117.897) scale(26.4485 30.608)">
<stop offset="0.629385" stop-color="#B8CDDF" stop-opacity="0"/>
<stop offset="1" stop-color="#95B0C7"/>
</radialGradient>
<radialGradient id="paint2_radial_174_193516" cx="0" cy="0" r="1" gradientUnits="userSpaceOnUse" gradientTransform="translate(34.625 48.3749) rotate(-90) scale(37.1248)">
<stop offset="0.6875" stop-color="#B8CDDF" stop-opacity="0"/>
<stop offset="1" stop-color="#A5C0D7"/>
</radialGradient>
<radialGradient id="paint3_radial_174_193516" cx="0" cy="0" r="1" gradientUnits="userSpaceOnUse" gradientTransform="translate(45.8083 48.4665) rotate(-56.3099) scale(29.0846)">
<stop offset="0.382649" stop-color="#B8CDDF" stop-opacity="0"/>
<stop offset="1" stop-color="#A3B9CC"/>
</radialGradient>
<linearGradient id="paint4_linear_174_193516" x1="58.6882" y1="67.0045" x2="41.3007" y2="47.842" gradientUnits="userSpaceOnUse">
<stop stop-color="#1493DF"/>
<stop offset="1" stop-color="#3CCBF4"/>
</linearGradient>
<linearGradient id="paint5_linear_174_193516" x1="32.6148" y1="64.4344" x2="16.9805" y2="47.0447" gradientUnits="userSpaceOnUse">
<stop stop-color="#1493DF"/>
<stop offset="1" stop-color="#3CCBF4"/>
</linearGradient>
<linearGradient id="paint6_linear_174_193516" x1="40.8648" y1="43.1433" x2="25.2307" y2="25.7536" gradientUnits="userSpaceOnUse">
<stop stop-color="#1493DF"/>
<stop offset="1" stop-color="#3CCBF4"/>
</linearGradient>
</defs>
</svg>
