<svg width="72" height="72" viewBox="0 0 72 72" fill="none" xmlns="http://www.w3.org/2000/svg">
<g clip-path="url(#clip0_582_45837)">
<g clip-path="url(#clip1_582_45837)">
<path fill-rule="evenodd" clip-rule="evenodd" d="M8.87989 28.897C18.8823 28.897 26.9909 20.7884 26.9909 10.786C26.9909 8.72679 26.6472 6.74786 26.0141 4.90341C25.7013 3.99209 26.5175 3.0393 27.4079 3.40757C34.6638 6.40868 39.7689 13.5566 39.7689 21.8969C39.7689 32.9426 30.8146 41.8969 19.7689 41.8969C11.2857 41.8969 4.03605 36.6153 1.12896 29.1609C0.778899 28.2633 1.748 27.4667 2.65273 27.798C4.59446 28.5089 6.69186 28.897 8.87989 28.897Z" fill="url(#paint0_linear_582_45837)"/>
</g>
<path fill-rule="evenodd" clip-rule="evenodd" d="M20.625 64.75H38.7083H40H56.7917C64.6387 64.75 71 58.3887 71 50.5417C71 42.6946 64.6387 36.3333 56.7917 36.3333C56.4801 36.3333 56.1709 36.3434 55.8643 36.3631C52.6209 30.2014 46.1553 26 38.7083 26C29.3224 26 21.4953 32.674 19.7138 41.5352C13.7194 42 9 47.0113 9 53.125C9 59.5453 14.2047 64.75 20.625 64.75Z" fill="#E7F1FF"/>
<path fill-rule="evenodd" clip-rule="evenodd" d="M20.625 64.75H38.7083H40H56.7917C64.6387 64.75 71 58.3887 71 50.5417C71 42.6946 64.6387 36.3333 56.7917 36.3333C56.4801 36.3333 56.1709 36.3434 55.8643 36.3631C52.6209 30.2014 46.1553 26 38.7083 26C29.3224 26 21.4953 32.674 19.7138 41.5352C13.7194 42 9 47.0113 9 53.125C9 59.5453 14.2047 64.75 20.625 64.75Z" fill="url(#paint1_linear_582_45837)"/>
<path fill-rule="evenodd" clip-rule="evenodd" d="M20.625 64.75H38.7083H40H56.7917C64.6387 64.75 71 58.3887 71 50.5417C71 42.6946 64.6387 36.3333 56.7917 36.3333C56.4801 36.3333 56.1709 36.3434 55.8643 36.3631C52.6209 30.2014 46.1553 26 38.7083 26C29.3224 26 21.4953 32.674 19.7138 41.5352C13.7194 42 9 47.0113 9 53.125C9 59.5453 14.2047 64.75 20.625 64.75Z" fill="url(#paint2_linear_582_45837)"/>
<path d="M9 53.125C9 46.7047 14.2047 41.5 20.625 41.5H24.5C33.0604 41.5 40 48.4396 40 57V64.75H20.625C14.2047 64.75 9 59.5453 9 53.125Z" fill="url(#paint3_radial_582_45837)"/>
<path d="M19.3334 45.375C19.3334 34.6745 28.0079 26 38.7084 26C49.4089 26 58.0834 34.6745 58.0834 45.375C58.0834 56.0755 49.4089 64.75 38.7084 64.75C28.0079 64.75 19.3334 56.0755 19.3334 45.375Z" fill="url(#paint4_radial_582_45837)"/>
<circle cx="56.7917" cy="50.5416" r="14.2083" fill="url(#paint5_radial_582_45837)"/>
</g>
<defs>
<linearGradient id="paint0_linear_582_45837" x1="36.7638" y1="40.2734" x2="38.3904" y2="1.97999" gradientUnits="userSpaceOnUse">
<stop stop-color="#EE7F18"/>
<stop offset="0.56298" stop-color="#EEB82E"/>
<stop offset="1" stop-color="#FEB649" stop-opacity="0.78"/>
</linearGradient>
<linearGradient id="paint1_linear_582_45837" x1="28.375" y1="35.0417" x2="40" y2="64.75" gradientUnits="userSpaceOnUse">
<stop stop-color="#C6D8F5"/>
<stop offset="1" stop-color="#89AFD1" stop-opacity="0"/>
</linearGradient>
<linearGradient id="paint2_linear_582_45837" x1="36.6415" y1="66.1214" x2="35.8269" y2="26" gradientUnits="userSpaceOnUse">
<stop stop-color="#547DDA"/>
<stop offset="0.257422" stop-color="#93C2FF" stop-opacity="0"/>
</linearGradient>
<radialGradient id="paint3_radial_582_45837" cx="0" cy="0" r="1" gradientUnits="userSpaceOnUse" gradientTransform="translate(25.7917 64.75) rotate(-127.875) scale(24.5454 28.4056)">
<stop offset="0.683784" stop-color="#8FABDD" stop-opacity="0"/>
<stop offset="1" stop-color="#5582D3"/>
</radialGradient>
<radialGradient id="paint4_radial_582_45837" cx="0" cy="0" r="1" gradientUnits="userSpaceOnUse" gradientTransform="translate(38.7084 60.875) rotate(-90) scale(34.875)">
<stop offset="0.598765" stop-color="#C7DFFF" stop-opacity="0"/>
<stop offset="1" stop-color="#6B97E6"/>
</radialGradient>
<radialGradient id="paint5_radial_582_45837" cx="0" cy="0" r="1" gradientUnits="userSpaceOnUse" gradientTransform="translate(49.2139 60.961) rotate(-56.3099) scale(27.3221)">
<stop offset="0.47771" stop-color="#8FABDD" stop-opacity="0"/>
<stop offset="1" stop-color="#5582D3"/>
</radialGradient>
<clipPath id="clip0_582_45837">
<rect width="72" height="72" fill="white"/>
</clipPath>
<clipPath id="clip1_582_45837">
<rect width="40" height="40" fill="white" transform="translate(0 2)"/>
</clipPath>
</defs>
</svg>
