<svg width="73" height="73" viewBox="0 0 73 73" fill="none" xmlns="http://www.w3.org/2000/svg">
<circle cx="36" cy="36" r="30" fill="url(#paint0_linear_1545_85809)"/>
<path fill-rule="evenodd" clip-rule="evenodd" d="M23.4 73H41.1333H42.4H58.8667C66.5618 73 72.8 66.7618 72.8 59.0667C72.8 51.3715 66.5618 45.1333 58.8667 45.1333C58.5611 45.1333 58.2579 45.1432 57.9573 45.1625C54.7767 39.1201 48.4361 35 41.1333 35C31.9291 35 24.2535 41.5448 22.5064 50.2345C16.628 50.6903 12 55.6047 12 61.6C12 67.896 17.1039 73 23.4 73Z" fill="#E7F1FF"/>
<path fill-rule="evenodd" clip-rule="evenodd" d="M23.4 73H41.1333H42.4H58.8667C66.5618 73 72.8 66.7618 72.8 59.0667C72.8 51.3715 66.5618 45.1333 58.8667 45.1333C58.5611 45.1333 58.2579 45.1432 57.9573 45.1625C54.7767 39.1201 48.4361 35 41.1333 35C31.9291 35 24.2535 41.5448 22.5064 50.2345C16.628 50.6903 12 55.6047 12 61.6C12 67.896 17.1039 73 23.4 73Z" fill="url(#paint1_linear_1545_85809)"/>
<path fill-rule="evenodd" clip-rule="evenodd" d="M23.4 73H41.1333H42.4H58.8667C66.5618 73 72.8 66.7618 72.8 59.0667C72.8 51.3715 66.5618 45.1333 58.8667 45.1333C58.5611 45.1333 58.2579 45.1432 57.9573 45.1625C54.7767 39.1201 48.4361 35 41.1333 35C31.9291 35 24.2535 41.5448 22.5064 50.2345C16.628 50.6903 12 55.6047 12 61.6C12 67.896 17.1039 73 23.4 73Z" fill="url(#paint2_linear_1545_85809)"/>
<path d="M12 61.6C12 55.3039 17.104 50.2 23.4 50.2H27.2C35.5947 50.2 42.4 57.0052 42.4 65.4V73H23.4C17.1039 73 12 67.896 12 61.6Z" fill="url(#paint3_radial_1545_85809)"/>
<path d="M22.1333 54C22.1333 43.5066 30.6399 35 41.1333 35C51.6267 35 60.1333 43.5066 60.1333 54C60.1333 64.4934 51.6267 73 41.1333 73C30.6399 73 22.1333 64.4934 22.1333 54Z" fill="url(#paint4_radial_1545_85809)"/>
<circle cx="58.8667" cy="59.0666" r="13.9333" fill="url(#paint5_radial_1545_85809)"/>
<defs>
<linearGradient id="paint0_linear_1545_85809" x1="49.5" y1="49" x2="0.579727" y2="-10.7074" gradientUnits="userSpaceOnUse">
<stop stop-color="#EF6D0F"/>
<stop offset="0.56298" stop-color="#EEB82E"/>
<stop offset="1" stop-color="#FEB649" stop-opacity="0.78"/>
</linearGradient>
<linearGradient id="paint1_linear_1545_85809" x1="31" y1="43.8667" x2="42.4" y2="73" gradientUnits="userSpaceOnUse">
<stop stop-color="#C6D8F5"/>
<stop offset="1" stop-color="#89AFD1" stop-opacity="0"/>
</linearGradient>
<linearGradient id="paint2_linear_1545_85809" x1="39.1065" y1="74.3448" x2="38.3077" y2="35" gradientUnits="userSpaceOnUse">
<stop stop-color="#547DDA"/>
<stop offset="0.257422" stop-color="#93C2FF" stop-opacity="0"/>
</linearGradient>
<radialGradient id="paint3_radial_1545_85809" cx="0" cy="0" r="1" gradientUnits="userSpaceOnUse" gradientTransform="translate(28.4667 73) rotate(-127.875) scale(24.0704 27.8558)">
<stop offset="0.683784" stop-color="#8FABDD" stop-opacity="0"/>
<stop offset="1" stop-color="#5582D3"/>
</radialGradient>
<radialGradient id="paint4_radial_1545_85809" cx="0" cy="0" r="1" gradientUnits="userSpaceOnUse" gradientTransform="translate(41.1333 69.2) rotate(-90) scale(34.2)">
<stop offset="0.598765" stop-color="#C7DFFF" stop-opacity="0"/>
<stop offset="1" stop-color="#6B97E6"/>
</radialGradient>
<radialGradient id="paint5_radial_1545_85809" cx="0" cy="0" r="1" gradientUnits="userSpaceOnUse" gradientTransform="translate(51.4356 69.2844) rotate(-56.3099) scale(26.7933)">
<stop offset="0.47771" stop-color="#8FABDD" stop-opacity="0"/>
<stop offset="1" stop-color="#5582D3"/>
</radialGradient>
</defs>
</svg>
