<svg width="72" height="72" viewBox="0 0 72 72" fill="none" xmlns="http://www.w3.org/2000/svg">
<circle cx="52.5" cy="25" r="16.5" fill="url(#paint0_linear_174_193626)"/>
<circle cx="52.5" cy="25" r="16.5" fill="url(#paint1_linear_174_193626)"/>
<path fill-rule="evenodd" clip-rule="evenodd" d="M36 55.2503V55.2502H52.2327C52.2437 55.2502 52.2547 55.25 52.2656 55.2498C52.2937 55.25 52.3218 55.25 52.35 55.25C59.9907 55.25 66.1846 49.0561 66.1846 41.4154C66.1846 33.7748 59.9907 27.5808 52.35 27.5808C52.0466 27.5808 51.7455 27.5906 51.447 27.6098C48.2889 21.6102 41.9933 17.5194 34.7423 17.5194C25.6033 17.5194 17.982 24.0179 16.2474 32.6461C10.4106 33.0987 5.8154 37.9782 5.8154 43.9311C5.8154 50.1825 10.8832 55.2503 17.1346 55.2503H36Z" fill="white"/>
<path fill-rule="evenodd" clip-rule="evenodd" d="M36 55.2503V55.2502H52.2327C52.2437 55.2502 52.2547 55.25 52.2656 55.2498C52.2937 55.25 52.3218 55.25 52.35 55.25C59.9907 55.25 66.1846 49.0561 66.1846 41.4154C66.1846 33.7748 59.9907 27.5808 52.35 27.5808C52.0466 27.5808 51.7455 27.5906 51.447 27.6098C48.2889 21.6102 41.9933 17.5194 34.7423 17.5194C25.6033 17.5194 17.982 24.0179 16.2474 32.6461C10.4106 33.0987 5.8154 37.9782 5.8154 43.9311C5.8154 50.1825 10.8832 55.2503 17.1346 55.2503H36Z" fill="url(#paint2_linear_174_193626)"/>
<path d="M5.8154 43.931C5.8154 37.6796 10.8832 32.6118 17.1346 32.6118H20.9077C29.243 32.6118 36 39.3689 36 47.7041V55.2503H17.1346C10.8832 55.2503 5.8154 50.1825 5.8154 43.931V43.931Z" fill="url(#paint3_radial_174_193626)"/>
<path d="M15.8769 36.3848C15.8769 25.9657 24.3233 17.5194 34.7423 17.5194V17.5194C45.1614 17.5194 53.6077 25.9657 53.6077 36.3848V36.3848C53.6077 46.8039 45.1614 55.2502 34.7423 55.2502V55.2502C24.3233 55.2502 15.8769 46.8039 15.8769 36.3848V36.3848Z" fill="url(#paint4_radial_174_193626)"/>
<circle cx="52.35" cy="41.4154" r="13.8346" fill="url(#paint5_radial_174_193626)"/>
<path fill-rule="evenodd" clip-rule="evenodd" d="M44.2502 59.3177V40.6754C44.2502 38.9565 46.3318 38.0994 47.5421 39.32L60.6102 52.4993C62.3935 54.2463 63.5 56.6815 63.5 59.3751C63.5 64.6909 59.1907 69.0001 53.875 69.0001C48.5593 69.0001 44.25 64.6909 44.25 59.3751C44.25 59.356 44.2501 59.3368 44.2502 59.3177Z" fill="#C4C4C4"/>
<path fill-rule="evenodd" clip-rule="evenodd" d="M44.2502 59.3177V40.6754C44.2502 38.9565 46.3318 38.0994 47.5421 39.32L60.6102 52.4993C62.3935 54.2463 63.5 56.6815 63.5 59.3751C63.5 64.6909 59.1907 69.0001 53.875 69.0001C48.5593 69.0001 44.25 64.6909 44.25 59.3751C44.25 59.356 44.2501 59.3368 44.2502 59.3177Z" fill="url(#paint6_linear_174_193626)"/>
<path fill-rule="evenodd" clip-rule="evenodd" d="M19.5002 57.4873V42.7195C19.5002 41.0006 21.5818 40.1435 22.7921 41.3641L32.8826 51.5404C34.7822 53.0518 36 55.3836 36 57.9998C36 62.5562 32.3063 66.2498 27.75 66.2498C23.1937 66.2498 19.5 62.5562 19.5 57.9998C19.5 57.8255 19.5054 57.6524 19.5161 57.4808L19.5002 57.4873Z" fill="#C4C4C4"/>
<path fill-rule="evenodd" clip-rule="evenodd" d="M19.5002 57.4873V42.7195C19.5002 41.0006 21.5818 40.1435 22.7921 41.3641L32.8826 51.5404C34.7822 53.0518 36 55.3836 36 57.9998C36 62.5562 32.3063 66.2498 27.75 66.2498C23.1937 66.2498 19.5 62.5562 19.5 57.9998C19.5 57.8255 19.5054 57.6524 19.5161 57.4808L19.5002 57.4873Z" fill="url(#paint7_linear_174_193626)"/>
<defs>
<linearGradient id="paint0_linear_174_193626" x1="40.6406" y1="13.1406" x2="68.9981" y2="38.7134" gradientUnits="userSpaceOnUse">
<stop offset="0.162966" stop-color="#FFE975"/>
<stop offset="0.53915" stop-color="#FFB729"/>
<stop offset="0.742056" stop-color="#FF9900"/>
</linearGradient>
<linearGradient id="paint1_linear_174_193626" x1="60.7514" y1="39.3233" x2="44.2487" y2="10.7396" gradientUnits="userSpaceOnUse">
<stop stop-color="#E25A01"/>
<stop offset="1" stop-color="#FFD400"/>
</linearGradient>
<linearGradient id="paint2_linear_174_193626" x1="24.6808" y1="26.3233" x2="36" y2="55.2502" gradientUnits="userSpaceOnUse">
<stop stop-color="#C7DBFF"/>
<stop offset="1" stop-color="#B5CBDF" stop-opacity="0"/>
</linearGradient>
<radialGradient id="paint3_radial_174_193626" cx="0" cy="0" r="1" gradientUnits="userSpaceOnUse" gradientTransform="translate(22.1654 55.2503) rotate(-117.897) scale(24.1922 27.9968)">
<stop offset="0.629385" stop-color="#B8CDDF" stop-opacity="0"/>
<stop offset="1" stop-color="#95B0C7"/>
</radialGradient>
<radialGradient id="paint4_radial_174_193626" cx="0" cy="0" r="1" gradientUnits="userSpaceOnUse" gradientTransform="translate(34.7423 51.4771) rotate(-90) scale(33.9577)">
<stop offset="0.6875" stop-color="#B8CDDF" stop-opacity="0"/>
<stop offset="1" stop-color="#A0BCD3"/>
</radialGradient>
<radialGradient id="paint5_radial_174_193626" cx="0" cy="0" r="1" gradientUnits="userSpaceOnUse" gradientTransform="translate(44.9715 51.5608) rotate(-56.3099) scale(26.6034)">
<stop offset="0.382649" stop-color="#B8CDDF" stop-opacity="0"/>
<stop offset="1" stop-color="#A3B9CC"/>
</radialGradient>
<linearGradient id="paint6_linear_174_193626" x1="58.6883" y1="67.0045" x2="41.3007" y2="47.8419" gradientUnits="userSpaceOnUse">
<stop stop-color="#1493DF"/>
<stop offset="1" stop-color="#3CCBF4"/>
</linearGradient>
<linearGradient id="paint7_linear_174_193626" x1="32.6148" y1="64.4342" x2="16.9804" y2="47.0444" gradientUnits="userSpaceOnUse">
<stop stop-color="#1493DF"/>
<stop offset="1" stop-color="#3CCBF4"/>
</linearGradient>
</defs>
</svg>
