<svg width="72" height="72" viewBox="0 0 72 72" fill="none" xmlns="http://www.w3.org/2000/svg">
<path fill-rule="evenodd" clip-rule="evenodd" d="M11.4423 29.1934C20.7107 29.1934 28.2241 21.6799 28.2241 12.4115C28.2241 10.4216 27.8778 8.51262 27.2421 6.74149C26.9707 5.9852 27.6493 5.18938 28.3956 5.4871C35.2331 8.21463 40.0647 14.8966 40.0647 22.707C40.0647 32.9421 31.7675 41.2392 21.5325 41.2392C13.59 41.2392 6.81452 36.2428 4.17766 29.2217C3.89517 28.4695 4.70449 27.8071 5.45507 28.0939C7.31468 28.8043 9.33305 29.1934 11.4423 29.1934Z" fill="url(#paint0_radial_174_193727)"/>
<path fill-rule="evenodd" clip-rule="evenodd" d="M21.8608 62.8603H38.7321L38.7826 62.8603H55.6622C55.6762 62.8604 55.6902 62.8604 55.7041 62.8604C63.0471 62.8604 68.9998 56.9078 68.9998 49.5648C68.9998 42.2219 63.0471 36.2692 55.7041 36.2692C55.4127 36.2692 55.1234 36.2786 54.8365 36.2971C51.8015 30.5311 45.7512 26.5996 38.7826 26.5996C29.9996 26.5996 22.6754 32.8448 21.0082 41.1368C15.3989 41.5716 10.9826 46.2611 10.9826 51.9821C10.9826 57.9899 15.8529 62.8603 21.8608 62.8603Z" fill="white"/>
<path fill-rule="evenodd" clip-rule="evenodd" d="M21.8608 62.8603H38.7321L38.7826 62.8603H55.6622C55.6762 62.8604 55.6902 62.8604 55.7041 62.8604C63.0471 62.8604 68.9998 56.9078 68.9998 49.5648C68.9998 42.2219 63.0471 36.2692 55.7041 36.2692C55.4127 36.2692 55.1234 36.2786 54.8365 36.2971C51.8015 30.5311 45.7512 26.5996 38.7826 26.5996C29.9996 26.5996 22.6754 32.8448 21.0082 41.1368C15.3989 41.5716 10.9826 46.2611 10.9826 51.9821C10.9826 57.9899 15.8529 62.8603 21.8608 62.8603Z" fill="url(#paint1_linear_174_193727)"/>
<path d="M10.9826 51.982C10.9826 45.9741 15.853 41.1038 21.8608 41.1038H25.4869C33.4974 41.1038 39.9912 47.5976 39.9912 55.6081V62.8602H21.8608C15.8529 62.8602 10.9826 57.9899 10.9826 51.982V51.982Z" fill="url(#paint2_radial_174_193727)"/>
<path d="M20.6522 44.73C20.6522 34.7169 28.7695 26.5996 38.7826 26.5996V26.5996C48.7957 26.5996 56.913 34.7169 56.913 44.73V44.73C56.913 54.7431 48.7957 62.8603 38.7826 62.8603V62.8603C28.7695 62.8603 20.6522 54.7431 20.6522 44.73V44.73Z" fill="url(#paint3_radial_174_193727)"/>
<circle cx="55.7042" cy="49.5648" r="13.2956" fill="url(#paint4_radial_174_193727)"/>
<path fill-rule="evenodd" clip-rule="evenodd" d="M44.2503 59.2939V40.6756C44.2503 38.9566 46.3319 38.0996 47.5422 39.3202L60.6161 52.5052C62.3959 54.2518 63.4999 56.6845 63.4999 59.3751C63.4999 64.6909 59.1907 69.0001 53.875 69.0001C48.5592 69.0001 44.25 64.6909 44.25 59.3751C44.25 59.348 44.2501 59.321 44.2503 59.2939Z" fill="#C4C4C4"/>
<path fill-rule="evenodd" clip-rule="evenodd" d="M44.2503 59.2939V40.6756C44.2503 38.9566 46.3319 38.0996 47.5422 39.3202L60.6161 52.5052C62.3959 54.2518 63.4999 56.6845 63.4999 59.3751C63.4999 64.6909 59.1907 69.0001 53.875 69.0001C48.5592 69.0001 44.25 64.6909 44.25 59.3751C44.25 59.348 44.2501 59.321 44.2503 59.2939Z" fill="url(#paint5_linear_174_193727)"/>
<path fill-rule="evenodd" clip-rule="evenodd" d="M19.5003 57.4876V42.7199C19.5003 41.001 21.5819 40.1439 22.7922 41.3645L32.8826 51.5407C34.7823 53.0521 36 55.3839 36 58.0001C36 62.5564 32.3064 66.2501 27.7501 66.2501C23.1938 66.2501 19.5001 62.5564 19.5001 58.0001C19.5001 57.8258 19.5055 57.6527 19.5162 57.4811L19.5003 57.4876Z" fill="#C4C4C4"/>
<path fill-rule="evenodd" clip-rule="evenodd" d="M19.5003 57.4876V42.7199C19.5003 41.001 21.5819 40.1439 22.7922 41.3645L32.8826 51.5407C34.7823 53.0521 36 55.3839 36 58.0001C36 62.5564 32.3064 66.2501 27.7501 66.2501C23.1938 66.2501 19.5001 62.5564 19.5001 58.0001C19.5001 57.8258 19.5055 57.6527 19.5162 57.4811L19.5003 57.4876Z" fill="url(#paint6_linear_174_193727)"/>
<defs>
<radialGradient id="paint0_radial_174_193727" cx="0" cy="0" r="1" gradientUnits="userSpaceOnUse" gradientTransform="translate(15.973 14.3674) rotate(44.5779) scale(33.8229 33.8717)">
<stop stop-color="#FEF000"/>
<stop offset="0.40625" stop-color="#FCC90E"/>
<stop offset="0.760417" stop-color="#F8AA05"/>
</radialGradient>
<linearGradient id="paint1_linear_174_193727" x1="29.113" y1="35.0604" x2="39.9912" y2="62.8603" gradientUnits="userSpaceOnUse">
<stop stop-color="#C7DBFF"/>
<stop offset="1" stop-color="#B5CBDF" stop-opacity="0"/>
</linearGradient>
<radialGradient id="paint2_radial_174_193727" cx="0" cy="0" r="1" gradientUnits="userSpaceOnUse" gradientTransform="translate(26.6956 62.8602) rotate(-117.897) scale(23.2496 26.906)">
<stop offset="0.629385" stop-color="#B8CDDF" stop-opacity="0"/>
<stop offset="1" stop-color="#95B0C7"/>
</radialGradient>
<radialGradient id="paint3_radial_174_193727" cx="0" cy="0" r="1" gradientUnits="userSpaceOnUse" gradientTransform="translate(38.7826 59.2343) rotate(-90) scale(32.6347)">
<stop offset="0.6875" stop-color="#B8CDDF" stop-opacity="0"/>
<stop offset="1" stop-color="#A0BCD3"/>
</radialGradient>
<radialGradient id="paint4_radial_174_193727" cx="0" cy="0" r="1" gradientUnits="userSpaceOnUse" gradientTransform="translate(48.6132 59.3149) rotate(-56.3099) scale(25.5669)">
<stop offset="0.382649" stop-color="#B8CDDF" stop-opacity="0"/>
<stop offset="1" stop-color="#A3B9CC"/>
</radialGradient>
<linearGradient id="paint5_linear_174_193727" x1="58.6883" y1="67.0045" x2="41.3007" y2="47.842" gradientUnits="userSpaceOnUse">
<stop stop-color="#1493DF"/>
<stop offset="1" stop-color="#3CCBF4"/>
</linearGradient>
<linearGradient id="paint6_linear_174_193727" x1="32.6148" y1="64.4344" x2="16.9805" y2="47.0447" gradientUnits="userSpaceOnUse">
<stop stop-color="#1493DF"/>
<stop offset="1" stop-color="#3CCBF4"/>
</linearGradient>
</defs>
</svg>
