<svg width="72" height="72" viewBox="0 0 72 72" fill="none" xmlns="http://www.w3.org/2000/svg">
<circle cx="52.5" cy="25" r="16.5" fill="url(#paint0_linear_174_193643)"/>
<circle cx="52.5" cy="25" r="16.5" fill="url(#paint1_linear_174_193643)"/>
<path fill-rule="evenodd" clip-rule="evenodd" d="M36 55.2503V55.2502H52.2328C52.2438 55.2502 52.2547 55.25 52.2657 55.2498C52.2938 55.25 52.3219 55.25 52.3501 55.25C59.9907 55.25 66.1847 49.0561 66.1847 41.4154C66.1847 33.7748 59.9907 27.5808 52.3501 27.5808C52.0467 27.5808 51.7456 27.5906 51.4471 27.6098C48.289 21.6102 41.9934 17.5194 34.7424 17.5194C25.6033 17.5194 17.9821 24.0179 16.2474 32.6461C10.4107 33.0986 5.81543 37.9782 5.81543 43.9311C5.81543 50.1825 10.8832 55.2503 17.1346 55.2503H36Z" fill="white"/>
<path fill-rule="evenodd" clip-rule="evenodd" d="M36 55.2503V55.2502H52.2328C52.2438 55.2502 52.2547 55.25 52.2657 55.2498C52.2938 55.25 52.3219 55.25 52.3501 55.25C59.9907 55.25 66.1847 49.0561 66.1847 41.4154C66.1847 33.7748 59.9907 27.5808 52.3501 27.5808C52.0467 27.5808 51.7456 27.5906 51.4471 27.6098C48.289 21.6102 41.9934 17.5194 34.7424 17.5194C25.6033 17.5194 17.9821 24.0179 16.2474 32.6461C10.4107 33.0986 5.81543 37.9782 5.81543 43.9311C5.81543 50.1825 10.8832 55.2503 17.1346 55.2503H36Z" fill="url(#paint2_linear_174_193643)"/>
<path d="M5.81543 43.931C5.81543 37.6796 10.8832 32.6118 17.1347 32.6118H20.9077C29.243 32.6118 36 39.3689 36 47.7041V55.2503H17.1346C10.8832 55.2503 5.81543 50.1825 5.81543 43.931V43.931Z" fill="url(#paint3_radial_174_193643)"/>
<path d="M15.877 36.3848C15.877 25.9657 24.3233 17.5194 34.7424 17.5194V17.5194C45.1615 17.5194 53.6078 25.9657 53.6078 36.3848V36.3848C53.6078 46.8039 45.1615 55.2502 34.7424 55.2502V55.2502C24.3233 55.2502 15.877 46.8039 15.877 36.3848V36.3848Z" fill="url(#paint4_radial_174_193643)"/>
<circle cx="52.3501" cy="41.4154" r="13.8346" fill="url(#paint5_radial_174_193643)"/>
<path fill-rule="evenodd" clip-rule="evenodd" d="M53.8751 36C54.6345 36 55.2501 36.6156 55.2501 37.375V39.5555L55.6528 39.1527C56.1898 38.6158 57.0604 38.6158 57.5973 39.1527C58.1343 39.6897 58.1343 40.5603 57.5973 41.0973L55.2501 43.4445V47.3683L58.6482 45.4064L59.5073 42.2002C59.7039 41.4666 60.4578 41.0313 61.1914 41.2279C61.9249 41.4244 62.3602 42.1784 62.1636 42.9119L62.0163 43.4619L63.9046 42.3717C64.5622 41.992 65.4031 42.2173 65.7828 42.8749C66.1625 43.5326 65.9372 44.3735 65.2796 44.7532L63.391 45.8436L63.9414 45.991C64.6749 46.1876 65.1102 46.9415 64.9136 47.675C64.7171 48.4086 63.9631 48.8439 63.2296 48.6473L60.023 47.7881L56.6249 49.75L60.023 51.7119L63.2296 50.8527C63.9631 50.6561 64.7171 51.0914 64.9136 51.825C65.1102 52.5585 64.6749 53.3124 63.9414 53.509L63.391 53.6564L65.2795 54.7468C65.9372 55.1265 66.1625 55.9674 65.7828 56.6251C65.4031 57.2827 64.5622 57.508 63.9045 57.1283L62.0163 56.0382L62.1636 56.5881C62.3602 57.3216 61.9249 58.0756 61.1914 58.2721C60.4578 58.4687 59.7039 58.0334 59.5073 57.2998L58.6482 54.0936L55.2501 52.1317V56.0555L57.5973 58.4027C58.1343 58.9397 58.1343 59.8103 57.5973 60.3473C57.0604 60.8842 56.1898 60.8842 55.6528 60.3473L55.2501 59.9445V62.125C55.2501 62.8844 54.6345 63.5 53.8751 63.5C53.1157 63.5 52.5001 62.8844 52.5001 62.125V59.9445L52.0973 60.3473C51.5604 60.8842 50.6898 60.8842 50.1528 60.3473C49.6158 59.8103 49.6158 58.9397 50.1528 58.4027L52.5001 56.0555V52.1315L49.1018 54.0935L48.2426 57.3C48.0461 58.0336 47.2921 58.4689 46.5586 58.2723C45.8251 58.0758 45.3898 57.3218 45.5863 56.5883L45.7338 56.038L43.8454 57.1282C43.1878 57.5079 42.3468 57.2826 41.9671 56.6249C41.5874 55.9673 41.8128 55.1264 42.4704 54.7467L44.3586 53.6565L43.8086 53.5092C43.0751 53.3126 42.6398 52.5587 42.8363 51.8252C43.0328 51.0916 43.7868 50.6563 44.5203 50.8529L47.7266 51.712L51.1249 49.75L47.7266 47.788L44.5203 48.6471C43.7868 48.8437 43.0329 48.4084 42.8363 47.6748C42.6398 46.9413 43.0751 46.1874 43.8086 45.9908L44.3585 45.8435L42.4704 44.7533C41.8127 44.3737 41.5874 43.5327 41.9671 42.8751C42.3468 42.2174 43.1877 41.9921 43.8454 42.3718L45.7338 43.462L45.5863 42.9117C45.3898 42.1782 45.8251 41.4242 46.5586 41.2277C47.2921 41.0311 48.0461 41.4664 48.2426 42.2L49.1018 45.4066L52.5001 47.3686V43.4445L50.1528 41.0973C49.6158 40.5603 49.6158 39.6897 50.1528 39.1527C50.6898 38.6158 51.5604 38.6158 52.0973 39.1527L52.5001 39.5555V37.375C52.5001 36.6156 53.1157 36 53.8751 36Z" fill="url(#paint6_linear_174_193643)"/>
<path fill-rule="evenodd" clip-rule="evenodd" d="M20.8751 41.5C21.6345 41.5 22.2501 42.1156 22.2501 42.875V45.0555L22.6528 44.6527C23.1898 44.1158 24.0604 44.1158 24.5973 44.6527C25.1343 45.1897 25.1343 46.0603 24.5973 46.5973L22.2501 48.9445V52.8683L25.6482 50.9064L26.5073 47.7002C26.7039 46.9666 27.4578 46.5313 28.1914 46.7279C28.9249 46.9244 29.3602 47.6784 29.1636 48.4119L29.0163 48.9619L30.9046 47.8717C31.5622 47.492 32.4031 47.7173 32.7828 48.3749C33.1625 49.0326 32.9372 49.8735 32.2796 50.2532L30.391 51.3436L30.9414 51.491C31.6749 51.6876 32.1102 52.4415 31.9136 53.175C31.7171 53.9086 30.9631 54.3439 30.2296 54.1473L27.023 53.2881L23.6249 55.25L27.023 57.2119L30.2296 56.3527C30.9631 56.1561 31.7171 56.5914 31.9136 57.325C32.1102 58.0585 31.6749 58.8124 30.9414 59.009L30.391 59.1564L32.2795 60.2468C32.9372 60.6265 33.1625 61.4674 32.7828 62.1251C32.4031 62.7827 31.5622 63.008 30.9045 62.6283L29.0163 61.5382L29.1636 62.0881C29.3602 62.8216 28.9249 63.5756 28.1914 63.7721C27.4578 63.9687 26.7039 63.5334 26.5073 62.7998L25.6482 59.5936L22.2501 57.6317V61.5555L24.5973 63.9027C25.1343 64.4397 25.1343 65.3103 24.5973 65.8473C24.0604 66.3842 23.1898 66.3842 22.6528 65.8473L22.2501 65.4445V67.625C22.2501 68.3844 21.6345 69 20.8751 69C20.1157 69 19.5001 68.3844 19.5001 67.625V65.4445L19.0973 65.8473C18.5604 66.3842 17.6898 66.3842 17.1528 65.8473C16.6158 65.3103 16.6158 64.4397 17.1528 63.9027L19.5001 61.5555V57.6315L16.1018 59.5935L15.2426 62.8C15.0461 63.5336 14.2921 63.9689 13.5586 63.7723C12.8251 63.5758 12.3898 62.8218 12.5863 62.0883L12.7338 61.538L10.8454 62.6282C10.1878 63.0079 9.34684 62.7826 8.96714 62.1249C8.58745 61.4673 8.81278 60.6264 9.47043 60.2467L11.3586 59.1565L10.8086 59.0092C10.0751 58.8126 9.63976 58.0587 9.8363 57.3252C10.0328 56.5916 10.7868 56.1563 11.5203 56.3529L14.7266 57.212L18.1249 55.25L14.7266 53.288L11.5203 54.1471C10.7868 54.3437 10.0329 53.9084 9.83631 53.1748C9.63977 52.4413 10.0751 51.6874 10.8086 51.4908L11.3585 51.3435L9.47038 50.2533C8.81273 49.8737 8.5874 49.0327 8.9671 48.3751C9.34679 47.7174 10.1877 47.4921 10.8454 47.8718L12.7338 48.962L12.5863 48.4117C12.3898 47.6782 12.8251 46.9242 13.5586 46.7277C14.2921 46.5311 15.0461 46.9664 15.2426 47.7L16.1018 50.9066L19.5001 52.8686V48.9445L17.1528 46.5973C16.6158 46.0603 16.6158 45.1897 17.1528 44.6527C17.6898 44.1158 18.5604 44.1158 19.0973 44.6527L19.5001 45.0555V42.875C19.5001 42.1156 20.1157 41.5 20.8751 41.5Z" fill="url(#paint7_linear_174_193643)"/>
<defs>
<linearGradient id="paint0_linear_174_193643" x1="40.6406" y1="13.1406" x2="68.9981" y2="38.7134" gradientUnits="userSpaceOnUse">
<stop offset="0.162966" stop-color="#FFE975"/>
<stop offset="0.53915" stop-color="#FFB729"/>
<stop offset="0.742056" stop-color="#FF9900"/>
</linearGradient>
<linearGradient id="paint1_linear_174_193643" x1="60.7514" y1="39.3233" x2="44.2487" y2="10.7396" gradientUnits="userSpaceOnUse">
<stop stop-color="#E25A01"/>
<stop offset="1" stop-color="#FFD400"/>
</linearGradient>
<linearGradient id="paint2_linear_174_193643" x1="24.6808" y1="26.3233" x2="36" y2="55.2502" gradientUnits="userSpaceOnUse">
<stop stop-color="#C7DBFF"/>
<stop offset="1" stop-color="#B5CBDF" stop-opacity="0"/>
</linearGradient>
<radialGradient id="paint3_radial_174_193643" cx="0" cy="0" r="1" gradientUnits="userSpaceOnUse" gradientTransform="translate(22.1654 55.2503) rotate(-117.897) scale(24.1922 27.9968)">
<stop offset="0.629385" stop-color="#B8CDDF" stop-opacity="0"/>
<stop offset="1" stop-color="#95B0C7"/>
</radialGradient>
<radialGradient id="paint4_radial_174_193643" cx="0" cy="0" r="1" gradientUnits="userSpaceOnUse" gradientTransform="translate(34.7424 51.4771) rotate(-90) scale(33.9577)">
<stop offset="0.6875" stop-color="#B8CDDF" stop-opacity="0"/>
<stop offset="1" stop-color="#A0BCD3"/>
</radialGradient>
<radialGradient id="paint5_radial_174_193643" cx="0" cy="0" r="1" gradientUnits="userSpaceOnUse" gradientTransform="translate(44.9717 51.5608) rotate(-56.3099) scale(26.6034)">
<stop offset="0.382649" stop-color="#B8CDDF" stop-opacity="0"/>
<stop offset="1" stop-color="#A3B9CC"/>
</radialGradient>
<linearGradient id="paint6_linear_174_193643" x1="53.8749" y1="36" x2="53.8749" y2="63.5" gradientUnits="userSpaceOnUse">
<stop stop-color="#0097D9"/>
<stop offset="1" stop-color="#28AFEA"/>
</linearGradient>
<linearGradient id="paint7_linear_174_193643" x1="20.8749" y1="41.5" x2="20.8749" y2="69" gradientUnits="userSpaceOnUse">
<stop stop-color="#0097D9"/>
<stop offset="1" stop-color="#28AFEA"/>
</linearGradient>
</defs>
</svg>
